<?xml version="1.0" encoding="UTF-8"?>
<svg xmlns="http://www.w3.org/2000/svg" xmlns:xlink="http://www.w3.org/1999/xlink" width="0" height="0">
<defs>
<symbol viewBox="0 0 24 24" id="arrow-left"><path fill="none" stroke="currentColor" stroke-linecap="round" stroke-linejoin="round" stroke-width="2" d="m12 19l-7-7l7-7m7 7H5"></path></symbol>
<symbol viewBox="0 0 24 24" id="arrow-right"><path fill="none" stroke="currentColor" stroke-linecap="round" stroke-linejoin="round" stroke-width="2" d="M5 12h14m-7-7l7 7l-7 7"></path></symbol>
<symbol viewBox="0 0 24 24" id="arrow-up-right"><path fill="none" stroke="currentColor" stroke-linecap="round" stroke-linejoin="round" stroke-width="2" d="M7 7h10v10M7 17L17 7"></path></symbol>
<symbol viewBox="0 0 24 24" id="arrow-up"><path fill="none" stroke="currentColor" stroke-linecap="round" stroke-linejoin="round" stroke-width="2" d="m5 12l7-7l7 7m-7 7V5"></path></symbol>
<symbol viewBox="0 0 24 24" id="building-2"><g fill="none" stroke="currentColor" stroke-linecap="round" stroke-linejoin="round" stroke-width="2"><path d="M10 12h4m-4-4h4m0 13v-3a2 2 0 0 0-4 0v3"></path><path d="M6 10H4a2 2 0 0 0-2 2v7a2 2 0 0 0 2 2h16a2 2 0 0 0 2-2V9a2 2 0 0 0-2-2h-2"></path><path d="M6 21V5a2 2 0 0 1 2-2h8a2 2 0 0 1 2 2v16"></path></g></symbol>
<symbol viewBox="0 0 24 24" id="calculator"><g fill="none" stroke="currentColor" stroke-linecap="round" stroke-linejoin="round" stroke-width="2"><rect width="16" height="20" x="4" y="2" rx="2"></rect><path d="M8 6h8m0 8v4m0-8h.01M12 10h.01M8 10h.01M12 14h.01M8 14h.01M12 18h.01M8 18h.01"></path></g></symbol>
<symbol viewBox="0 0 24 24" id="calendar"><g fill="none" stroke="currentColor" stroke-linecap="round" stroke-linejoin="round" stroke-width="2"><path d="M8 2v4m8-4v4"></path><rect width="18" height="18" x="3" y="4" rx="2"></rect><path d="M3 10h18"></path></g></symbol>
<symbol viewBox="0 0 24 24" id="chart-bar-big"><g fill="none" stroke="currentColor" stroke-linecap="round" stroke-linejoin="round" stroke-width="2"><path d="M3 3v16a2 2 0 0 0 2 2h16"></path><rect width="9" height="4" x="7" y="13" rx="1"></rect><rect width="12" height="4" x="7" y="5" rx="1"></rect></g></symbol>
<symbol viewBox="0 0 24 24" id="chart-spline"><g fill="none" stroke="currentColor" stroke-linecap="round" stroke-linejoin="round" stroke-width="2"><path d="M3 3v16a2 2 0 0 0 2 2h16"></path><path d="M7 16c.5-2 1.5-7 4-7c2 0 2 3 4 3c2.5 0 4.5-5 5-7"></path></g></symbol>
<symbol viewBox="0 0 24 24" id="check"><path fill="none" stroke="currentColor" stroke-linecap="round" stroke-linejoin="round" stroke-width="2" d="M20 6L9 17l-5-5"></path></symbol>
<symbol viewBox="0 0 24 24" id="chevron-down"><path fill="none" stroke="currentColor" stroke-linecap="round" stroke-linejoin="round" stroke-width="2" d="m6 9l6 6l6-6"></path></symbol>
<symbol viewBox="0 0 24 24" id="chevron-left"><path fill="none" stroke="currentColor" stroke-linecap="round" stroke-linejoin="round" stroke-width="2" d="m15 18l-6-6l6-6"></path></symbol>
<symbol viewBox="0 0 24 24" id="chevron-right"><path fill="none" stroke="currentColor" stroke-linecap="round" stroke-linejoin="round" stroke-width="2" d="m9 18l6-6l-6-6"></path></symbol>
<symbol viewBox="0 0 24 24" id="chevrons-up-down"><path fill="none" stroke="currentColor" stroke-linecap="round" stroke-linejoin="round" stroke-width="2" d="m7 15l5 5l5-5M7 9l5-5l5 5"></path></symbol>
<symbol viewBox="0 0 24 24" id="circle-alert"><g fill="none" stroke="currentColor" stroke-linecap="round" stroke-linejoin="round" stroke-width="2"><circle cx="12" cy="12" r="10"></circle><path d="M12 8v4m0 4h.01"></path></g></symbol>
<symbol viewBox="0 0 24 24" id="circle-check"><g fill="none" stroke="currentColor" stroke-linecap="round" stroke-linejoin="round" stroke-width="2"><circle cx="12" cy="12" r="10"></circle><path d="m9 12l2 2l4-4"></path></g></symbol>
<symbol viewBox="0 0 24 24" id="circle-minus"><g fill="none" stroke="currentColor" stroke-linecap="round" stroke-linejoin="round" stroke-width="2"><circle cx="12" cy="12" r="10"></circle><path d="M8 12h8"></path></g></symbol>
<symbol viewBox="0 0 24 24" id="circle"><circle cx="12" cy="12" r="10" fill="none" stroke="currentColor" stroke-linecap="round" stroke-linejoin="round" stroke-width="2"></circle></symbol>
<symbol viewBox="0 0 24 24" id="cloud-moon-rain"><path fill="none" stroke="currentColor" stroke-linecap="round" stroke-linejoin="round" stroke-width="2" d="M11 20v2m7.376-7.488a6 6 0 0 0 3.461-4.127c.148-.625-.659-.97-1.248-.714a4 4 0 0 1-5.259-5.26c.255-.589-.09-1.395-.716-1.248a6 6 0 0 0-4.594 5.36M3 20a5 5 0 1 1 8.9-4H13a3 3 0 0 1 2 5.24M7 19v2"></path></symbol>
<symbol viewBox="0 0 24 24" id="code"><path fill="none" stroke="currentColor" stroke-linecap="round" stroke-linejoin="round" stroke-width="2" d="m16 18l6-6l-6-6M8 6l-6 6l6 6"></path></symbol>
<symbol viewBox="0 0 80 80" fill="none" id="codenity-dark">
  
  <g>
      
  <defs>
    
    <linearGradient id="landing-gen-frostBody" x1="0%" y1="0%" x2="100%" y2="100%">
        
        <stop offset="0%" stop-color="white" stop-opacity="0.35" ></stop>
        
        <stop offset="50%" stop-color="white" stop-opacity="0.15" ></stop>
        
        <stop offset="100%" stop-color="white" stop-opacity="0.3" ></stop>
    </linearGradient>

    
<filter id="landing-gen-frostFilter" x="-100%" y="-100%" width="300%" height="300%" filterUnits="objectBoundingBox">        
        
        <feGaussianBlur in="SourceAlpha" stdDeviation="4" result="shadowBlur"></feGaussianBlur>
        <feOffset in="shadowBlur" dx="0" dy="6" result="shadowOffset"></feOffset>
        <feFlood flood-color="black" flood-opacity="0.2" result="shadowColor"></feFlood>
        <feComposite in="shadowColor" in2="shadowOffset" operator="in" result="dropShadow"></feComposite>

        
        
        <feMorphology operator="erode" radius="1" in="SourceAlpha" result="eroded"></feMorphology>
        <feComposite in="SourceAlpha" in2="eroded" operator="out" result="strokeMask"></feComposite>
        
        
        <feFlood flood-color="white" flood-opacity="0.8" result="strokeColor"></feFlood>
        <feComposite in="strokeColor" in2="strokeMask" operator="in" result="rimLight"></feComposite>

        
        <feGaussianBlur in="SourceAlpha" stdDeviation="2" result="blurMap"></feGaussianBlur>
        <feSpecularLighting in="blurMap" surfaceScale="2" specularConstant="0.6" specularExponent="10" lighting-color="white" result="specular">
            <fePointLight x="-100" y="-100" z="300" ></fePointLight>
        </feSpecularLighting>
        <feComposite in="specular" in2="SourceAlpha" operator="in" result="specularSheen"></feComposite>

        
        <feMerge>
            <feMergeNode in="dropShadow"></feMergeNode>    
            <feMergeNode in="SourceGraphic"></feMergeNode> 
            <feMergeNode in="specularSheen"></feMergeNode> 
            <feMergeNode in="rimLight"></feMergeNode>      
        </feMerge>
    </filter>

    <mask id="landing-gen-m2"><rect x="-1000" y="-1000" width="4000" height="4000" fill="white"></rect><path d="M 50 40 L 40 50" stroke="black" stroke-width="8" stroke-linecap="round"></path></mask>
    <mask id="landing-gen-m3"><rect x="-1000" y="-1000" width="4000" height="4000" fill="white"></rect><path d="M 60 20 L 30 50" stroke="black" stroke-width="10" stroke-linecap="round"></path></mask>
    <clipPath id="landing-gen-cp"><rect x="0" y="0" width="80" height="80" ></rect></clipPath>
  </defs>

  <g clip-path="url(#landing-gen-cp)">
      
      <path d="M 50 50 L 15 85" stroke="url(#landing-gen-frostBody)" stroke-width="6" stroke-linecap="round" mask="url(#landing-gen-m2)" filter="url(#landing-gen-frostFilter)" ></path>
      
      
      <path d="M 50 40 L 40 50" stroke="url(#landing-gen-frostBody)" stroke-width="4" stroke-linecap="round" mask="url(#landing-gen-m3)" filter="url(#landing-gen-frostFilter)" ></path>
      
      
      <path d="M 60 20 L 30 50" stroke="url(#landing-gen-frostBody)" stroke-width="6" stroke-linecap="round" filter="url(#landing-gen-frostFilter)" ></path>
  </g>
  
  </g>
</symbol>
<symbol viewBox="0 0 80 80" fill="none" id="codenity-light">
  
  <g>
      
  <defs>
    
    <linearGradient id="landing-gen-frostBody" x1="0%" y1="0%" x2="100%" y2="100%">
        
        <stop offset="0%" stop-color="black" stop-opacity="0.2" ></stop>
        
        <stop offset="50%" stop-color="black" stop-opacity="0.1" ></stop>
        
        <stop offset="100%" stop-color="black" stop-opacity="0.2" ></stop>
    </linearGradient>

    
<filter id="landing-gen-frostFilter" x="-100%" y="-100%" width="300%" height="300%" filterUnits="objectBoundingBox">        
        
        <feGaussianBlur in="SourceAlpha" stdDeviation="4" result="shadowBlur"></feGaussianBlur>
        <feOffset in="shadowBlur" dx="0" dy="6" result="shadowOffset"></feOffset>
        <feFlood flood-color="black" flood-opacity="0.2" result="shadowColor"></feFlood>
        <feComposite in="shadowColor" in2="shadowOffset" operator="in" result="dropShadow"></feComposite>

        
        
        <feMorphology operator="erode" radius="1" in="SourceAlpha" result="eroded"></feMorphology>
        <feComposite in="SourceAlpha" in2="eroded" operator="out" result="strokeMask"></feComposite>
        
        
        <feFlood flood-color="#666" flood-opacity="0.5" result="strokeColor"></feFlood>
        <feComposite in="strokeColor" in2="strokeMask" operator="in" result="rimLight"></feComposite>

        
        <feGaussianBlur in="SourceAlpha" stdDeviation="2" result="blurMap"></feGaussianBlur>
        <feSpecularLighting in="blurMap" surfaceScale="2" specularConstant="0.6" specularExponent="10" lighting-color="white" result="specular">
            <fePointLight x="-100" y="-100" z="300" ></fePointLight>
        </feSpecularLighting>
        <feComposite in="specular" in2="SourceAlpha" operator="in" result="specularSheen"></feComposite>

        
        <feMerge>
            <feMergeNode in="dropShadow"></feMergeNode>    
            <feMergeNode in="SourceGraphic"></feMergeNode> 
            <feMergeNode in="specularSheen"></feMergeNode> 
            <feMergeNode in="rimLight"></feMergeNode>      
        </feMerge>
    </filter>

    <mask id="landing-gen-m2"><rect x="-1000" y="-1000" width="4000" height="4000" fill="white"></rect><path d="M 50 40 L 40 50" stroke="black" stroke-width="8" stroke-linecap="round"></path></mask>
    <mask id="landing-gen-m3"><rect x="-1000" y="-1000" width="4000" height="4000" fill="white"></rect><path d="M 60 20 L 30 50" stroke="black" stroke-width="10" stroke-linecap="round"></path></mask>
    <clipPath id="landing-gen-cp"><rect x="0" y="0" width="80" height="80" ></rect></clipPath>
  </defs>

  <g clip-path="url(#landing-gen-cp)">
      
      <path d="M 50 50 L 15 85" stroke="url(#landing-gen-frostBody)" stroke-width="6" stroke-linecap="round" mask="url(#landing-gen-m2)" filter="url(#landing-gen-frostFilter)" ></path>
      
      
      <path d="M 50 40 L 40 50" stroke="url(#landing-gen-frostBody)" stroke-width="4" stroke-linecap="round" mask="url(#landing-gen-m3)" filter="url(#landing-gen-frostFilter)" ></path>
      
      
      <path d="M 60 20 L 30 50" stroke="url(#landing-gen-frostBody)" stroke-width="6" stroke-linecap="round" filter="url(#landing-gen-frostFilter)" ></path>
  </g>
  
  </g>
</symbol>
<symbol viewBox="0 0 24 24" id="contact"><g fill="none" stroke="currentColor" stroke-linecap="round" stroke-linejoin="round" stroke-width="2"><path d="M16 2v2M7 22v-2a2 2 0 0 1 2-2h6a2 2 0 0 1 2 2v2M8 2v2"></path><circle cx="12" cy="11" r="3"></circle><rect width="18" height="18" x="3" y="4" rx="2"></rect></g></symbol>
<symbol viewBox="0 0 24 24" id="copy"><g fill="none" stroke="currentColor" stroke-linecap="round" stroke-linejoin="round" stroke-width="2"><rect width="14" height="14" x="8" y="8" rx="2" ry="2"></rect><path d="M4 16c-1.1 0-2-.9-2-2V4c0-1.1.9-2 2-2h10c1.1 0 2 .9 2 2"></path></g></symbol>
<symbol viewBox="0 0 24 24" id="git-branch"><g fill="none" stroke="currentColor" stroke-linecap="round" stroke-linejoin="round" stroke-width="2"><path d="M15 6a9 9 0 0 0-9 9V3"></path><circle cx="18" cy="6" r="3"></circle><circle cx="6" cy="18" r="3"></circle></g></symbol>
<symbol viewBox="0 0 15 15" fill="none" id="github-logo">
  <path 
    fill-rule="evenodd"
    clip-rule="evenodd"
    d="M7.49933 0.25C3.49635 0.25 0.25 3.49593 0.25 7.50024C0.25 10.703 2.32715 13.4206 5.2081 14.3797C5.57084 14.446 5.70302 14.2222 5.70302 14.0299C5.70302 13.8576 5.69679 13.4019 5.69323 12.797C3.67661 13.235 3.25112 11.825 3.25112 11.825C2.92132 10.9874 2.44599 10.7644 2.44599 10.7644C1.78773 10.3149 2.49584 10.3238 2.49584 10.3238C3.22353 10.375 3.60629 11.0711 3.60629 11.0711C4.25298 12.1788 5.30335 11.8588 5.71638 11.6732C5.78225 11.205 5.96962 10.8854 6.17658 10.7043C4.56675 10.5209 2.87415 9.89918 2.87415 7.12104C2.87415 6.32925 3.15677 5.68257 3.62053 5.17563C3.54576 4.99226 3.29697 4.25521 3.69174 3.25691C3.69174 3.25691 4.30015 3.06196 5.68522 3.99973C6.26337 3.83906 6.8838 3.75895 7.50022 3.75583C8.1162 3.75895 8.73619 3.83906 9.31523 3.99973C10.6994 3.06196 11.3069 3.25691 11.3069 3.25691C11.7026 4.25521 11.4538 4.99226 11.3795 5.17563C11.8441 5.68257 12.1245 6.32925 12.1245 7.12104C12.1245 9.9063 10.4292 10.5192 8.81452 10.6985C9.07444 10.9224 9.30633 11.3648 9.30633 12.0413C9.30633 13.0102 9.29742 13.7922 9.29742 14.0299C9.29742 14.2239 9.42828 14.4496 9.79591 14.3788C12.6746 13.4179 14.75 10.7025 14.75 7.50024C14.75 3.49593 11.5036 0.25 7.49933 0.25Z"
    fill="currentColor"
  ></path>
</symbol>
<symbol viewBox="0 0 24 24" id="globe"><g fill="none" stroke="currentColor" stroke-linecap="round" stroke-linejoin="round" stroke-width="2"><circle cx="12" cy="12" r="10"></circle><path d="M12 2a14.5 14.5 0 0 0 0 20a14.5 14.5 0 0 0 0-20M2 12h20"></path></g></symbol>
<symbol viewBox="0 0 24 24" id="house"><g fill="none" stroke="currentColor" stroke-linecap="round" stroke-linejoin="round" stroke-width="2"><path d="M15 21v-8a1 1 0 0 0-1-1h-4a1 1 0 0 0-1 1v8"></path><path d="M3 10a2 2 0 0 1 .709-1.528l7-6a2 2 0 0 1 2.582 0l7 6A2 2 0 0 1 21 10v9a2 2 0 0 1-2 2H5a2 2 0 0 1-2-2z"></path></g></symbol>
<symbol viewBox="0 0 24 24" id="info"><g fill="none" stroke="currentColor" stroke-linecap="round" stroke-linejoin="round" stroke-width="2"><circle cx="12" cy="12" r="10"></circle><path d="M12 16v-4m0-4h.01"></path></g></symbol>
<symbol viewBox="0 0 24 24" id="laptop"><path fill="none" stroke="currentColor" stroke-linecap="round" stroke-linejoin="round" stroke-width="2" d="M18 5a2 2 0 0 1 2 2v8.526a2 2 0 0 0 .212.897l1.068 2.127a1 1 0 0 1-.9 1.45H3.62a1 1 0 0 1-.9-1.45l1.068-2.127A2 2 0 0 0 4 15.526V7a2 2 0 0 1 2-2zm2.054 10.987H3.946"></path></symbol>
<symbol viewBox="0 0 24 24" id="layers"><g fill="none" stroke="currentColor" stroke-linecap="round" stroke-linejoin="round" stroke-width="2"><path d="M12.83 2.18a2 2 0 0 0-1.66 0L2.6 6.08a1 1 0 0 0 0 1.83l8.58 3.91a2 2 0 0 0 1.66 0l8.58-3.9a1 1 0 0 0 0-1.83z"></path><path d="M2 12a1 1 0 0 0 .58.91l8.6 3.91a2 2 0 0 0 1.65 0l8.58-3.9A1 1 0 0 0 22 12"></path><path d="M2 17a1 1 0 0 0 .58.91l8.6 3.91a2 2 0 0 0 1.65 0l8.58-3.9A1 1 0 0 0 22 17"></path></g></symbol>
<symbol viewBox="0 0 24 24" id="layout-dashboard"><g fill="none" stroke="currentColor" stroke-linecap="round" stroke-linejoin="round" stroke-width="2"><rect width="7" height="9" x="3" y="3" rx="1"></rect><rect width="7" height="5" x="14" y="3" rx="1"></rect><rect width="7" height="9" x="14" y="12" rx="1"></rect><rect width="7" height="5" x="3" y="16" rx="1"></rect></g></symbol>
<symbol viewBox="0 0 24 24" id="lock-open"><g fill="none" stroke="currentColor" stroke-linecap="round" stroke-linejoin="round" stroke-width="2"><rect width="18" height="11" x="3" y="11" rx="2" ry="2"></rect><path d="M7 11V7a5 5 0 0 1 9.9-1"></path></g></symbol>
<symbol viewBox="0 0 24 24" id="lock"><g fill="none" stroke="currentColor" stroke-linecap="round" stroke-linejoin="round" stroke-width="2"><rect width="18" height="11" x="3" y="11" rx="2" ry="2"></rect><path d="M7 11V7a5 5 0 0 1 10 0v4"></path></g></symbol>
<symbol viewBox="0 0 24 24" id="log-out"><path fill="none" stroke="currentColor" stroke-linecap="round" stroke-linejoin="round" stroke-width="2" d="m16 17l5-5l-5-5m5 5H9m0 9H5a2 2 0 0 1-2-2V5a2 2 0 0 1 2-2h4"></path></symbol>
<symbol viewBox="0 0 24 24" id="menu"><path fill="none" stroke="currentColor" stroke-linecap="round" stroke-linejoin="round" stroke-width="2" d="M4 5h16M4 12h16M4 19h16"></path></symbol>
<symbol viewBox="0 0 24 24" id="moon"><path fill="none" stroke="currentColor" stroke-linecap="round" stroke-linejoin="round" stroke-width="2" d="M20.985 12.486a9 9 0 1 1-9.473-9.472c.405-.022.617.46.402.803a6 6 0 0 0 8.268 8.268c.344-.215.825-.004.803.401"></path></symbol>
<symbol viewBox="0 0 24 24" id="package"><g fill="none" stroke="currentColor" stroke-linecap="round" stroke-linejoin="round" stroke-width="2"><path d="M11 21.73a2 2 0 0 0 2 0l7-4A2 2 0 0 0 21 16V8a2 2 0 0 0-1-1.73l-7-4a2 2 0 0 0-2 0l-7 4A2 2 0 0 0 3 8v8a2 2 0 0 0 1 1.73zm1 .27V12"></path><path d="M3.29 7L12 12l8.71-5M7.5 4.27l9 5.15"></path></g></symbol>
<symbol viewBox="0 0 24 24" id="panel-left-close"><g fill="none" stroke="currentColor" stroke-linecap="round" stroke-linejoin="round" stroke-width="2"><rect width="18" height="18" x="3" y="3" rx="2"></rect><path d="M9 3v18m7-6l-3-3l3-3"></path></g></symbol>
<symbol viewBox="0 0 24 24" id="panel-left-open"><g fill="none" stroke="currentColor" stroke-linecap="round" stroke-linejoin="round" stroke-width="2"><rect width="18" height="18" x="3" y="3" rx="2"></rect><path d="M9 3v18m5-12l3 3l-3 3"></path></g></symbol>
<symbol viewBox="0 0 24 24" id="panel-left"><g fill="none" stroke="currentColor" stroke-linecap="round" stroke-linejoin="round" stroke-width="2"><rect width="18" height="18" x="3" y="3" rx="2"></rect><path d="M9 3v18"></path></g></symbol>
<symbol viewBox="0 0 24 24" fill="#000000" style="opacity:1;" id="passkey"><path  d="M3 20v-2.8q0-.85.438-1.562T4.6 14.55q1.55-.775 3.15-1.162T11 13q.5 0 1 .038t1 .112q-.1 1.45.525 2.738T15.35 18v2zm16 3l-1.5-1.5v-4.65q-1.1-.325-1.8-1.237T15 13.5q0-1.45 1.025-2.475T18.5 10t2.475 1.025T22 13.5q0 1.125-.638 2t-1.612 1.25L21 18l-1.5 1.5L21 21zm-8-11q-1.65 0-2.825-1.175T7 8t1.175-2.825T11 4t2.825 1.175T15 8t-1.175 2.825T11 12m7.5 2q.425 0 .713-.288T19.5 13t-.288-.712T18.5 12t-.712.288T17.5 13t.288.713t.712.287"></path></symbol>
<symbol viewBox="0 0 24 24" id="pencil"><path fill="none" stroke="currentColor" stroke-linecap="round" stroke-linejoin="round" stroke-width="2" d="M21.174 6.812a1 1 0 0 0-3.986-3.987L3.842 16.174a2 2 0 0 0-.5.83l-1.321 4.352a.5.5 0 0 0 .623.622l4.353-1.32a2 2 0 0 0 .83-.497zM15 5l4 4"></path></symbol>
<symbol viewBox="0 0 24 24" id="refresh-ccw"><g fill="none" stroke="currentColor" stroke-linecap="round" stroke-linejoin="round" stroke-width="2"><path d="M21 12a9 9 0 0 0-9-9a9.75 9.75 0 0 0-6.74 2.74L3 8"></path><path d="M3 3v5h5m-5 4a9 9 0 0 0 9 9a9.75 9.75 0 0 0 6.74-2.74L21 16"></path><path d="M16 16h5v5"></path></g></symbol>
<symbol viewBox="0 0 24 24" id="rocket"><g fill="none" stroke="currentColor" stroke-linecap="round" stroke-linejoin="round" stroke-width="2"><path d="M12 15v5s3.03-.55 4-2c1.08-1.62 0-5 0-5M4.5 16.5c-1.5 1.26-2 5-2 5s3.74-.5 5-2c.71-.84.7-2.13-.09-2.91a2.18 2.18 0 0 0-2.91-.09"></path><path d="M9 12a22 22 0 0 1 2-3.95A12.88 12.88 0 0 1 22 2c0 2.72-.78 7.5-6 11a22.4 22.4 0 0 1-4 2z"></path><path d="M9 12H4s.55-3.03 2-4c1.62-1.08 5 .05 5 .05"></path></g></symbol>
<symbol viewBox="0 0 24 24" id="settings"><g fill="none" stroke="currentColor" stroke-linecap="round" stroke-linejoin="round" stroke-width="2"><path d="M9.671 4.136a2.34 2.34 0 0 1 4.659 0a2.34 2.34 0 0 0 3.319 1.915a2.34 2.34 0 0 1 2.33 4.033a2.34 2.34 0 0 0 0 3.831a2.34 2.34 0 0 1-2.33 4.033a2.34 2.34 0 0 0-3.319 1.915a2.34 2.34 0 0 1-4.659 0a2.34 2.34 0 0 0-3.32-1.915a2.34 2.34 0 0 1-2.33-4.033a2.34 2.34 0 0 0 0-3.831A2.34 2.34 0 0 1 6.35 6.051a2.34 2.34 0 0 0 3.319-1.915"></path><circle cx="12" cy="12" r="3"></circle></g></symbol>
<symbol viewBox="0 0 24 24" id="shield-check"><g fill="none" stroke="currentColor" stroke-linecap="round" stroke-linejoin="round" stroke-width="2"><path d="M20 13c0 5-3.5 7.5-7.66 8.95a1 1 0 0 1-.67-.01C7.5 20.5 4 18 4 13V6a1 1 0 0 1 1-1c2 0 4.5-1.2 6.24-2.72a1.17 1.17 0 0 1 1.52 0C14.51 3.81 17 5 19 5a1 1 0 0 1 1 1z"></path><path d="m9 12l2 2l4-4"></path></g></symbol>
<symbol viewBox="0 0 24 24" id="shield-off"><path fill="none" stroke="currentColor" stroke-linecap="round" stroke-linejoin="round" stroke-width="2" d="m2 2l20 20M5 5a1 1 0 0 0-1 1v7c0 5 3.5 7.5 7.67 8.94a1 1 0 0 0 .67.01c2.35-.82 4.48-1.97 5.9-3.71M9.309 3.652A12.3 12.3 0 0 0 11.24 2.28a1.17 1.17 0 0 1 1.52 0C14.51 3.81 17 5 19 5a1 1 0 0 1 1 1v7a10 10 0 0 1-.08 1.264"></path></symbol>
<symbol viewBox="0 0 24 24" id="shield"><path fill="none" stroke="currentColor" stroke-linecap="round" stroke-linejoin="round" stroke-width="2" d="M20 13c0 5-3.5 7.5-7.66 8.95a1 1 0 0 1-.67-.01C7.5 20.5 4 18 4 13V6a1 1 0 0 1 1-1c2 0 4.5-1.2 6.24-2.72a1.17 1.17 0 0 1 1.52 0C14.51 3.81 17 5 19 5a1 1 0 0 1 1 1z"></path></symbol>
<symbol viewBox="0 0 24 24" id="shopping-cart"><g fill="none" stroke="currentColor" stroke-linecap="round" stroke-linejoin="round" stroke-width="2"><circle cx="8" cy="21" r="1"></circle><circle cx="19" cy="21" r="1"></circle><path d="M2.05 2.05h2l2.66 12.42a2 2 0 0 0 2 1.58h9.78a2 2 0 0 0 1.95-1.57l1.65-7.43H5.12"></path></g></symbol>
<symbol viewBox="0 0 24 24" id="smartphone"><g fill="none" stroke="currentColor" stroke-linecap="round" stroke-linejoin="round" stroke-width="2"><rect width="14" height="20" x="5" y="2" rx="2" ry="2"></rect><path d="M12 18h.01"></path></g></symbol>
<symbol viewBox="0 0 24 24" id="sun"><g fill="none" stroke="currentColor" stroke-linecap="round" stroke-linejoin="round" stroke-width="2"><circle cx="12" cy="12" r="4"></circle><path d="M12 2v2m0 16v2M4.93 4.93l1.41 1.41m11.32 11.32l1.41 1.41M2 12h2m16 0h2M6.34 17.66l-1.41 1.41M19.07 4.93l-1.41 1.41"></path></g></symbol>
<symbol viewBox="0 0 24 24" id="trending-up"><g fill="none" stroke="currentColor" stroke-linecap="round" stroke-linejoin="round" stroke-width="2"><path d="M16 7h6v6"></path><path d="m22 7l-8.5 8.5l-5-5L2 17"></path></g></symbol>
<symbol viewBox="0 0 24 24" id="upload"><path fill="none" stroke="currentColor" stroke-linecap="round" stroke-linejoin="round" stroke-width="2" d="M12 3v12m5-7l-5-5l-5 5m14 7v4a2 2 0 0 1-2 2H5a2 2 0 0 1-2-2v-4"></path></symbol>
<symbol viewBox="0 0 24 24" id="user"><g fill="none" stroke="currentColor" stroke-linecap="round" stroke-linejoin="round" stroke-width="2"><path d="M19 21v-2a4 4 0 0 0-4-4H9a4 4 0 0 0-4 4v2"></path><circle cx="12" cy="7" r="4"></circle></g></symbol>
<symbol viewBox="0 0 24 24" id="users"><g fill="none" stroke="currentColor" stroke-linecap="round" stroke-linejoin="round" stroke-width="2"><path d="M16 21v-2a4 4 0 0 0-4-4H6a4 4 0 0 0-4 4v2M16 3.128a4 4 0 0 1 0 7.744M22 21v-2a4 4 0 0 0-3-3.87"></path><circle cx="9" cy="7" r="4"></circle></g></symbol>
<symbol viewBox="0 0 24 24" id="x"><path fill="none" stroke="currentColor" stroke-linecap="round" stroke-linejoin="round" stroke-width="2" d="M18 6L6 18M6 6l12 12"></path></symbol>
<symbol viewBox="0 0 24 24" id="zap"><path fill="none" stroke="currentColor" stroke-linecap="round" stroke-linejoin="round" stroke-width="2" d="M4 14a1 1 0 0 1-.78-1.63l9.9-10.2a.5.5 0 0 1 .86.46l-1.92 6.02A1 1 0 0 0 13 10h7a1 1 0 0 1 .78 1.63l-9.9 10.2a.5.5 0 0 1-.86-.46l1.92-6.02A1 1 0 0 0 11 14z"></path></symbol>
</defs>
</svg>